<svg id="Layer_1" data-name="Layer 1" xmlns="http://www.w3.org/2000/svg" viewBox="0 0 1040 400"><defs><clipPath id="clip-path"><circle class="cls-1" cx="450.32" cy="353.3" r="22.44"/></clipPath><clipPath id="clip-path-2"><circle class="cls-1" cx="450.32" cy="353.3" r="16.72"/></clipPath><clipPath id="clip-path-3"><path class="cls-2" d="M445.71 349.7l-1.64-6.11A1.32 1.32 0 01445 342l4.25-1.14a1.32 1.32 0 011.61.93l3 11.21a.63.63 0 01-.07.5l-.77 1.35a.67.67 0 00.24.9l1.35.77a.69.69 0 01.31.4l1.64 6.11a1.32 1.32 0 01-.93 1.62l-4.25 1.14a1.32 1.32 0 01-1.62-.93l-3-11.21a.68.68 0 01.06-.5l.78-1.34a.68.68 0 00-.24-.91l-1.36-.8a.69.69 0 01-.29-.4z"/></clipPath><clipPath id="clip-path-4"><path class="cls-2" d="M444.49 331.63A22.44 22.44 0 10472 347.46a22.44 22.44 0 00-27.51-15.83zm-1.49-5.52a28.16 28.16 0 11-19.87 34.5 28.15 28.15 0 0119.87-34.5z"/></clipPath><style>.cls-1,.cls-2,.cls-24,.cls-4,.cls-9{fill:none}.cls-2{clip-rule:evenodd}.cls-3{fill:#212b36}.cls-24,.cls-4{stroke:#454f5b}.cls-24,.cls-4,.cls-9{stroke-linecap:round;stroke-linejoin:round}.cls-4{stroke-width:1.68px}.cls-5{fill:#c1958b}.cls-9{stroke:#8c6b54;stroke-width:6.34px}.cls-12{fill:#a58c7a}.cls-15{fill:#fff}.cls-16{fill:#6db5ff}.cls-17{fill:#ffc95c}.cls-24{stroke-width:2px}</style></defs><path class="cls-3" d="M0 0h1040v400H0z"/><rect class="cls-4" x="343.02" y="65.45" width="123.16" height="123.16" rx="16.94"/><rect class="cls-4" x="354.25" y="76.94" width="45.53" height="45.53" rx="7.39"/><rect class="cls-4" x="409.42" y="76.94" width="45.53" height="45.53" rx="7.39"/><rect class="cls-4" x="354.25" y="131.85" width="45.53" height="45.53" rx="7.39"/><rect class="cls-4" x="408.38" y="131.95" width="20.55" height="20.55" rx="3.33"/><rect class="cls-4" x="433.28" y="131.95" width="20.55" height="20.55" rx="3.33"/><rect class="cls-4" x="408.38" y="156.73" width="20.55" height="20.55" rx="3.33"/><rect class="cls-4" x="433.28" y="156.73" width="20.55" height="20.55" rx="3.33"/><path class="cls-5" d="M449.3 161.72s-5.67-11.88-15.22-5.38c-13 8.86 3.79 57 16.7 59.21 13.09 2.21 9.86-21.09 9.86-21.09zM599.93 161.75s5.58-11.91 15.17-5.48c13.09 8.76-5.34 57.1-16.26 59.32-13 2.65-10-21-10-21z"/><path d="M602.35 117.27c-3.84-53-52.52-64.21-70.76-66.57a53.16 53.16 0 00-13.69 0c-18.24 2.36-66.92 13.6-70.76 66.57-4.73 65.3 10.76 108.36 12.3 114.52 1.93 7.69 17 43.62 66.38 45.88 51.28-6.94 61.39-38.35 63.28-45.88 1.54-6.16 17.98-49.22 13.25-114.52z" fill="#d9b29e"/><path d="M602.58 117.23c-3.84-53-52.83-64.61-71.09-67a53.24 53.24 0 00-13.7 0c-18.26 2.36-67 14.05-70.87 67-4.73 65.3 11 108.36 12.52 114.51 1 4.07-13.66-78.6-2.84-121.13 5.72-22.44 21-41.84 33.13-39.75 4.73.82 7.84 9.52 36.91 11.36C555 80.36 555.06 70.7 562.7 71.54c11.76 1.3 25.82 18.36 33 42.89 12.55 42.73-7.65 121.48-6.62 117.35 1.56-6.15 18.23-49.25 13.5-114.55z" fill="#604531"/><path d="M521.9 161.73l.16 32.26a4.31 4.31 0 004.3 4.65h8.79" stroke="#000" stroke-width="1.41" opacity=".16" stroke-linecap="round" stroke-linejoin="round" fill="none"/><path class="cls-9" d="M547 148.52c13.89-6 25.43 3.21 25.43 3.21M502.49 149.47c-13.89-6-25.43 3.22-25.43 3.22"/><circle class="cls-3" cx="492.09" cy="170.78" r="3.31"/><circle class="cls-3" cx="556.43" cy="170.78" r="3.31"/><path class="cls-3" d="M497 213.35h.11l28.26 4.21 26.75-4.21h.67A2.5 2.5 0 01555 217c-3.53 7.25-13.08 22.85-29.85 22.87-15.87 0-26.33-15.46-30.38-22.75a2.51 2.51 0 012.23-3.77z"/><path d="M497.06 213.35c28.93 14.71 55 0 55 0z" fill="#dfe3e8"/><path d="M508.85 234s14.41-13.32 32.95-.08c0 0-15.03 13.41-32.95.08z" fill="#f6b2a1" opacity=".54"/><circle class="cls-12" cx="534.53" cy="175.4" r="1.31"/><ellipse class="cls-12" cx="516.84" cy="182.58" rx="1.31" ry="1.12" transform="rotate(-40.3 516.795 182.581)"/><circle class="cls-12" cx="531.09" cy="187.24" r="1.31"/><ellipse class="cls-12" cx="557.11" cy="194.77" rx=".69" ry="1.07" transform="rotate(-71.06 557.116 194.763)"/><ellipse class="cls-12" cx="498.11" cy="197.32" rx=".85" ry=".54" transform="rotate(-27.24 498.159 197.32)"/><ellipse class="cls-12" cx="511.52" cy="193.32" rx="1.31" ry="1" transform="rotate(-23.46 511.421 193.301)"/><ellipse class="cls-12" cx="547.84" cy="190.98" rx="1.46" ry="1.94" transform="rotate(-71.06 547.837 190.981)"/><ellipse class="cls-12" cx="501.19" cy="186.54" rx="1.94" ry="1.31" transform="rotate(-30 501.193 186.554)"/><circle class="cls-12" cx="529.78" cy="166.46" r="1.9"/><path d="M705.27 412.07H338.54v-8.3c0-42.68 50.08-111.87 111.86-111.87h143c61.79 0 111.81 57.76 111.87 111.87z" fill="#ef7457"/><rect x="384.05" y="226.94" width="281.03" height="192.73" rx="11.38" fill="#c4cdd5"/><g id="nGM7M1.tif"><path class="cls-15" d="M539.55 311.69c-.34.26-.69.5-1 .77a8.77 8.77 0 00-3 4.77 8.89 8.89 0 001.34 6.93 8.9 8.9 0 003.59 2.95c.12.06.14.1.09.23a22.39 22.39 0 01-3.13 6.09 19.28 19.28 0 01-1.87 2.35 6.38 6.38 0 01-2 1.45 4.8 4.8 0 01-2.34.35 7.48 7.48 0 01-2.4-.72 9.9 9.9 0 00-2.07-.7 8 8 0 00-2-.1 9.63 9.63 0 00-3.29.93 7.88 7.88 0 01-1.84.58 4.22 4.22 0 01-3.25-.71 10.89 10.89 0 01-2.18-2.11 24.93 24.93 0 01-5.49-12.6 18.58 18.58 0 01-.15-3.33 12.67 12.67 0 011.76-6.2 9.59 9.59 0 016.19-4.5 7.87 7.87 0 012.37-.19 8.08 8.08 0 012.32.54c.83.3 1.65.63 2.48.93a2.86 2.86 0 001.35.2 6.83 6.83 0 001.18-.31c.86-.3 1.7-.64 2.55-1a8.67 8.67 0 012.24-.51 12.68 12.68 0 011.51 0 9.67 9.67 0 012.44.47 8.71 8.71 0 014.57 3.38s.03.05.03.06zM524.51 307.38v-1.33a8.31 8.31 0 011.72-4.29 8.87 8.87 0 015.21-3.35c.31-.07.63-.09.95-.14v.29a8.82 8.82 0 01-3.73 7.51 7.07 7.07 0 01-2.88 1.21c-.37.06-.78.06-1.27.1z"/></g><rect class="cls-15" x="551.52" y="265.16" width="97.75" height="32.73" rx="16.36" transform="rotate(19.79 600.36 281.512)"/><rect class="cls-3" x="554.94" y="268.73" width="90.86" height="25.57" rx="12.78" transform="rotate(20 598.153 279.032)"/><path class="cls-15" d="M567.33 260.65l-1.47 16.89 3.37 1.21 6.44-9.25-1.13 11.17 3.09 1.1 9.77-13.63-3.1-1.11-6.17 9.03.91-11.19-3.13-1.13-6.5 9.13 1.25-11.02-3.33-1.2zM587.64 268.23l-1.47 16.88 3.37 1.22 6.44-9.26-1.12 11.17 3.08 1.11 9.78-13.63-3.11-1.12-6.17 9.03.92-11.19-3.13-1.12-6.5 9.12 1.25-11.01-3.34-1.2z"/><path class="cls-15" d="M606.16 278h7.68a6.64 6.64 0 016.64 6.64v3.12a6.64 6.64 0 01-6.64 6.64h-7.68V278z" transform="rotate(20 611.054 283.638)"/><path class="cls-3" d="M611.33 291l-3.09-1.11 3.49-9.87 3.14 1.13a3.81 3.81 0 012.3 4.87l-1 2.68a3.81 3.81 0 01-4.84 2.3z"/><path class="cls-15" d="M632.32 295.12a4.2 4.2 0 01-7.67-3.36l1-2.67a4.2 4.2 0 018.14 1.71L637 292a7.6 7.6 0 00-14.68-3.64l-.73 2a7.6 7.6 0 0014 5.93zM628.71 353.23c-4.59 1.3-9.42 2.93-14 4.23-2.32.65-5.08-1.46-5.08-1.39-.36 2.58-3.48 3.07-5.14 3.54-5.27 1.49-15.13 5-17.26 3.58-1.61-.5-2.68-2.57-3.14-4.14-1.05-3.51-1.61-6.54-2.55-10.08-.71-3 .8-4.1 1-4.23-1.35-.12-1.87-1-2.61-1.86-2.53-4.1.13-6.61 0-6.63-1.94-.18-2.61-1.09-3.1-2.76-1-3.48-1.75-6.84-2.68-10.35-.52-2-.82-3.41.61-4.78l.26-.23-.47-.11a5.55 5.55 0 01-2.7-3.4 6.1 6.1 0 013.53-7.34c4.92-1.35 8.75-2.45 13.65-3.85s6.17.7 6.17.7a7.18 7.18 0 013.75-3.33c4.5-1.2 8.93-2.48 13.41-3.72a7.32 7.32 0 013.8.1 5.34 5.34 0 014 3.39c1.75 5.13 5 17.12 5.19 18.42.58 2.16 1 3.61-.71 4.76 0 0 2.16 0 3 2.87a39.08 39.08 0 011.28 4.23c1.52 5.29 2.87 10.18 4.37 15.47.52 2.16-1.66 5.89-4.58 6.91z"/><path class="cls-3" d="M630.46 346.83a10.64 10.64 0 01-.37 1.37 4.67 4.67 0 01-3.14 2.9c-4.12 1.17-8.23 2.39-12.36 3.55a6 6 0 01-5.69-1.2l-.21-.16c0 .1 0 .16-.05.23a4 4 0 01-2.76 3.39c-4.74 1.35-9.48 2.66-14.23 4a4.79 4.79 0 01-2.68 0 4.08 4.08 0 01-2.81-2.87c-.94-3.16-1.81-6.34-2.66-9.53a4.52 4.52 0 011.44-4.61l.25-.24a2.82 2.82 0 01-2.62-.9 5.15 5.15 0 01-.28-6.91l.22-.26-.5-.11a4.12 4.12 0 01-3-3c-.92-3.13-1.77-6.28-2.61-9.43a4.35 4.35 0 011.47-4.48l.23-.22-.43-.09a4.76 4.76 0 01-3.55-3.12 4.35 4.35 0 01.7-4.15 4.75 4.75 0 012.66-1.91c4.42-1.21 8.84-2.46 13.25-3.72a4.94 4.94 0 014.31.82c.3.21.58.44.85.65a11.64 11.64 0 01.61-1.35 5.42 5.42 0 013.24-2.52c4-1.08 8.06-2.24 12.1-3.36a6.06 6.06 0 013.27-.09 4.81 4.81 0 013.36 3.28c1.57 4.62 2.71 9.37 4 14.06a26.06 26.06 0 01.85 3.46 4.17 4.17 0 01-1.88 4.31l-.07.1a5 5 0 013.9 2.81 14.06 14.06 0 01.78 2.43q2 7.14 4.07 14.29c.12.43.19.88.28 1.32zm-38.89 3.05l.21-.09c3.37-1 6.73-2 10.11-3a3 3 0 002.22-3.86q-.81-2.79-1.59-5.58c-.25-.87-.47-1.75-.69-2.62a3 3 0 00-2.51-2.29 4.44 4.44 0 00-1.94.33l-12.07 3.4a7.67 7.67 0 00-1.28.42 3 3 0 002.2 5.48l7.54-2.12 3.07-.86.7 2.42-.46.15-10.11 3a3 3 0 00-2.06 3.73l.39 1.42q1 3.66 1.91 7.32a3 3 0 003.29 2.2c.4-.06.79-.22 1.19-.32l12.94-3.52a2.85 2.85 0 002.08-2.37 3 3 0 00-1.46-3 3.41 3.41 0 00-2.8-.12c-3.28.95-6.57 1.84-9.86 2.76a2.79 2.79 0 01-.33.06zm-1-33.69l-.18.07c-3.44 1-6.87 2.05-10.32 3a3 3 0 00-2.14 3.72c.32 1.21.66 2.42 1 3.63.44 1.64.91 3.27 1.28 4.92a3 3 0 002.57 2.44 4.78 4.78 0 001.95-.34l12.93-3.51a2.93 2.93 0 002.14-2.85 3 3 0 00-2.41-2.89 4.51 4.51 0 00-2.09.29l-8.7 2.43-1.29.34-.69-3 .19-.1 10.26-3a3 3 0 002.11-3.66c-.38-1.39-.79-2.78-1.17-4.17s-.78-2.8-1.15-4.21a2.91 2.91 0 00-2.26-2.22 4 4 0 00-2.13.28c-3.69 1.05-7.39 2.08-11.08 3.12a16.9 16.9 0 00-2.26.69 2.86 2.86 0 00-1.63 3 3 3 0 002.23 2.56 4 4 0 002.1-.21l7.29-2 2.77-.76zm38.1 30.26a8.72 8.72 0 00-.16-.89q-1.1-4-2.21-8l-2.41-8.83a3.1 3.1 0 00-3.89-2.22l-4.75 1.34-8.44 2.38a3.13 3.13 0 00-2.19 4q1.41 4.93 2.81 9.88c.66 2.31 1.3 4.62 2 6.93a3.11 3.11 0 003.71 2.22l13.26-3.73a3.18 3.18 0 002.23-3.08zm-7.22-25.29a7 7 0 00-.13-.78l-2.79-10.12c-.63-2.29-1.24-4.58-1.86-6.86a3.1 3.1 0 00-3.79-2.19l-13.4 3.79a3.1 3.1 0 00-2.13 3.79c.41 1.5.85 3 1.27 4.49 1.17 4.15 2.35 8.31 3.51 12.46a3.1 3.1 0 003.8 2.17l3-.85 10-2.81a3.2 3.2 0 002.48-3.09z"/><path class="cls-16" d="M591.57 349.88l.69 2.93a2.79 2.79 0 00.33-.06c3.29-.92 6.58-1.81 9.86-2.76a3.41 3.41 0 012.8.12 3 3 0 011.46 3 2.85 2.85 0 01-2.08 2.37L591.69 359c-.4.1-.79.26-1.19.32a3 3 0 01-3.29-2.2q-.94-3.66-1.91-7.32l-.39-1.42a3 3 0 012.06-3.73l10.11-3 .46-.15-.7-2.42-3.07.86-7.54 2.12a3 3 0 01-2.2-5.48 7.67 7.67 0 011.28-.42l12.07-3.4a4.44 4.44 0 011.94-.33 3 3 0 012.51 2.29c.22.87.44 1.75.69 2.62q.78 2.79 1.59 5.58a3 3 0 01-2.22 3.86c-3.38 1-6.74 2-10.11 3z"/><path class="cls-17" d="M590.53 316.19l-.7-2.41-2.77.76-7.29 2a4 4 0 01-2.1.21 3 3 0 01-2.23-2.56 2.86 2.86 0 011.63-3 16.9 16.9 0 012.26-.69c3.69-1 7.39-2.07 11.08-3.12a4 4 0 012.13-.28 2.91 2.91 0 012.26 2.22c.37 1.41.76 2.81 1.15 4.21s.79 2.78 1.17 4.17a3 3 0 01-2.11 3.66l-10.26 3-.19.1.69 3 1.29-.34 8.7-2.43a4.51 4.51 0 012.09-.29 3 3 0 012.41 2.89 2.93 2.93 0 01-2.14 2.85l-12.93 3.51a4.78 4.78 0 01-1.95.34 3 3 0 01-2.57-2.44c-.37-1.65-.84-3.28-1.28-4.92-.32-1.21-.66-2.42-1-3.63a3 3 0 012.13-3.7c3.45-1 6.88-2 10.32-3z"/><path class="cls-16" d="M628.63 346.45a3.18 3.18 0 01-2.32 3l-13.26 3.73a3.11 3.11 0 01-3.71-2.22c-.65-2.31-1.29-4.62-2-6.93q-1.39-4.94-2.81-9.88a3.13 3.13 0 012.19-4l8.44-2.38 4.75-1.34a3.1 3.1 0 013.89 2.22q1.2 4.41 2.41 8.83 1.11 4 2.21 8a8.72 8.72 0 01.21.97zm-9.83-13.39l-7.83 2.1c1 3.87 2.06 7.7 3.09 11.56l7.83-2.1z"/><path class="cls-17" d="M621.41 321.16a3.2 3.2 0 01-2.4 3.07L609 327l-3 .85a3.1 3.1 0 01-3.8-2.17c-1.16-4.15-2.34-8.31-3.51-12.46-.42-1.5-.86-3-1.27-4.49a3.1 3.1 0 012.13-3.79l13.36-3.77a3.1 3.1 0 013.79 2.19c.62 2.28 1.23 4.57 1.86 6.86l2.79 10.12a7 7 0 01.06.82zm-17.57-11.5l3.1 11.58 7.84-2.11-3.1-11.57z"/><path class="cls-3" d="M618.8 333.06l3.09 11.56-7.83 2.1c-1-3.86-2.06-7.69-3.09-11.56zM603.84 309.66l7.84-2.1 3.1 11.57-7.84 2.11z"/><g clip-path="url(#clip-path)"><path transform="rotate(-15.07 450.167 353.2)" fill="#1a8cff" d="M425.69 328.66h49.28v49.28h-49.28z"/></g><g clip-path="url(#clip-path-2)"><path class="cls-15" transform="rotate(-15.07 450.167 353.2)" d="M431.4 334.38h37.84v37.84H431.4z"/></g><g clip-path="url(#clip-path-3)"><path transform="rotate(-15.07 450.167 353.2)" fill="#454f5b" d="M444.6 338.78h11.44v29.04H444.6z"/></g><g clip-path="url(#clip-path-4)"><path class="cls-15" transform="rotate(-15.07 450.167 353.2)" d="M419.97 322.94h60.72v60.72h-60.72z"/></g><rect class="cls-24" x="241.89" y="234.23" width="30.82" height="30.82" rx="5"/><rect class="cls-24" x="279.24" y="234.23" width="30.82" height="30.82" rx="5"/><rect class="cls-24" x="241.89" y="271.4" width="30.82" height="30.82" rx="5"/><rect class="cls-24" x="279.24" y="271.4" width="30.82" height="30.82" rx="5"/><rect class="cls-4" x="797.19" y="37.5" width="37.62" height="37.62" rx="6.1"/><rect class="cls-4" x="950.28" y="75.11" width="18.81" height="18.81" rx="3.05"/><rect class="cls-4" x="122.31" y="46.9" width="18.81" height="18.81" rx="3.05"/><rect class="cls-4" x="86.23" y="219.57" width="14.03" height="14.03" rx="2.28"/><rect class="cls-4" x="899.77" y="172.93" width="14.03" height="14.03" rx="2.28"/><rect class="cls-24" x="145.02" y="325.69" width="37.18" height="37.18" rx="6.03"/><rect class="cls-24" x="184.16" y="104.42" width="49.88" height="49.88" rx="8.09"/><rect class="cls-4" x="848.14" y="279.3" width="29.84" height="29.84" rx="4.84"/><rect class="cls-4" x="885.94" y="279.3" width="29.84" height="29.84" rx="4.84"/><rect class="cls-4" x="767.43" y="244.22" width="72.6" height="66" rx="11.23"/><rect class="cls-4" x="764.29" y="320.53" width="151.48" height="41.37" rx="10.1"/><path class="cls-4" d="M774.53 330.64h55.39"/><rect class="cls-4" x="774.53" y="340.45" width="132" height="12.3" rx="6.15"/><rect class="cls-4" x="774.53" y="340.45" width="92.51" height="12.3" rx="6.15"/><circle class="cls-4" cx="860.74" cy="346.6" r="6.15"/><rect class="cls-4" x="764.79" y="370.41" width="151.48" height="41.37" rx="10.1"/><path class="cls-4" d="M775.03 380.52h32.41"/><rect class="cls-4" x="775.03" y="390.33" width="132" height="12.3" rx="6.15"/><rect class="cls-4" x="775.03" y="390.33" width="67.69" height="12.3" rx="6.15"/><circle class="cls-4" cx="836.57" cy="396.48" r="6.15"/><rect class="cls-4" x="848.14" y="244.22" width="67.64" height="27.8" rx="6.56"/><path class="cls-24" d="M782 141.79h10.87a9.27 9.27 0 019.27 9.27v33.27a9.27 9.27 0 01-9.27 9.26H759.6a9.27 9.27 0 01-9.26-9.26v-11.42M765 180c.1.1 4.95-10.94 4.95-10.94M787.68 180c-.1.1-11.36-25.13-11.36-25.13M768.92 172.28h14.63"/><path class="cls-24" d="M771.21 105.59h-94.32c-2.78 0-5 3-5 6.81v70.32c0 1.61 1.59 2.14 2.15.72 2.36-6.05 7.18-13.46 16.65-14.43h80.55c2.78 0 5-3 5-6.81v-49.8c0-3.76-2.24-6.81-5.03-6.81zM703.52 123.59s8.47 2.52 14.31-3.46M712.27 132s.68 8.31-17.92 19.69M704.38 144.39l5.43 7.29M734.23 126.16l26.93 24.03"/><rect class="cls-24" x="751.17" y="125.09" width="8.52" height="8.52" rx="2.3" transform="rotate(45 755.428 129.359)"/><path class="cls-24" d="M735.29 150.19l8.48-8.96"/></svg>