<svg viewBox="0 0 1040 400" xmlns="http://www.w3.org/2000/svg" xmlns:xlink="http://www.w3.org/1999/xlink"><clipPath id="a"><circle cx="385.46" cy="301.16" r="29.49"/></clipPath><clipPath id="b"><rect height="34" rx="6.04" width="34" x="758.15" y="124.64"/></clipPath><path d="m0-8.78h1040v418.28h-1040z" fill="#232b40"/><path d="m195.17 143.41v-22.74a16 16 0 0 1 16-16h12.83" fill="none" stroke="#6d7aa0" stroke-linecap="round" stroke-miterlimit="10"/><path d="m716.78 97v-10.13a7.21 7.21 0 0 0 -7.21-7.21h-109.35a7.21 7.21 0 0 0 -7.22 7.21v71a7.2 7.2 0 0 0 7.21 7.2h36.7l13.69 12.84a8 8 0 0 0 10.92 0l13.69-12.84h34.35a7.2 7.2 0 0 0 7.21-7.2v-19.16" fill="none" stroke="#6d7aa0" stroke-linecap="round" stroke-miterlimit="10"/><path d="m876.86 308.74h-270a10.15 10.15 0 0 1 -10.14-10.15v-186.1a10.15 10.15 0 0 1 10.14-10.15h270a10.15 10.15 0 0 1 10.14 10.15v186.1a10.15 10.15 0 0 1 -10.14 10.15z" fill="#4d5d8c"/><circle cx="605.26" cy="111.65" fill="#fff" r="2.73"/><g fill="#5d6571"><path d="m607.43 111.65c.07 0 .24 0 .2 0h-.28z"/><path d="m607.94 111.49a2.18 2.18 0 0 0 -.63 0h.48s-.09 0-.19 0h.11s.22-.08 0-.1a.62.62 0 0 1 .23.1z"/><path d="m607.07 109.11a.08.08 0 0 0 0 0z"/><path d="m605.47 108.39a.07.07 0 0 0 0-.06s0 .03 0 .06z"/><path d="m605.16 108.07s0-.02 0 0z"/><path d="m607.07 109.11v-.11c-.07.08-.01.08 0 .11z"/><path d="m607.24 111.28a.08.08 0 0 0 .07 0z"/><path d="m607.8 109.47.09-.06z"/><path d="m608.2 110a1.58 1.58 0 0 0 -.3.15.37.37 0 0 1 .15-.06z"/><path d="m607.52 109.12.05-.07z"/><path d="m608.05 111.65.01.01h.14z"/><path d="m604.49 107.84s0-.02 0 0z"/><path d="m601.63 112.44c.19-.11.29 0 .5-.1-.13.03-.38-.01-.5.1z"/><path d="m607.27 111.27s0 0 0 0-.01-.01 0 0z"/><path d="m602.13 112.34v-.01l.02-.01z"/><path d="m603.15 108.56.07.07a.43.43 0 0 0 -.07-.07z"/><path d="m602.93 109.16s0 0 0 0-.03-.01 0 0z"/><path d="m606.58 112.77.17.13c-.13-.11-.15-.17-.17-.13z"/><path d="m604.2 110.53h-.05a0 0 0 0 0 .05 0z"/><path d="m604.77 113.35s.01-.03 0 0z"/><path d="m604.09 110.65-.14-.09z"/><path d="m606.46 112.35s.25.17.4.27-.21-.1-.35-.17c0 .06.28.24.25.26l-.11-.08c.18.17 0 .08.17.31h-.06l.33.27s.11.16-.05 0c0 0 0-.07-.09-.11v.07c-.23-.17 0-.09-.21-.23 0 .09.18.3.09.27-.21-.19 0-.12-.23-.26h.12c-.37-.27 0 0-.34-.29-.1 0 .06.14 0 .13.1.12.17.16.27.28.11.29-.54-.48-.33-.15.11.15.33.44.17.32l-.19-.26c-.06 0 .25.39.07.26s0-.12 0-.15c-.18-.18.08.17 0 .19l-.16-.23v.37a1.12 1.12 0 0 0 -.13-.24c0 .17-.19.05-.31-.09v.25a.32.32 0 0 1 0-.15c-.06-.08 0 .15 0 .25s-.06-.13-.07-.21c0 .22-.07.49-.18.23v-.07c-.06-.09 0 .51-.07.29-.12-.09-.26.14-.33-.24 0 .35-.08-.16-.15.32a3.12 3.12 0 0 0 0-.51s-.09.3-.13.34v-.25l-.1.25.06-.3a1 1 0 0 1 0 .19c-.08.11 0-.2 0-.32l-.16.17a1.3 1.3 0 0 1 .1-.18c-.14.23.09-.26 0-.05a1.08 1.08 0 0 1 -.08.19c0-.15 0-.18-.06-.13l.08-.16c0-.06-.15 0-.22 0a1 1 0 0 1 -.23.36l.14-.24c-.11.14 0 .1-.18.26 0 0 .16-.27.22-.34l-.08.06.14-.18c-.11.13.12-.26-.07 0l.05-.07c-.06 0-.14 0-.19 0a1.84 1.84 0 0 1 -.3.24c0-.1.12-.26.07-.29a2.17 2.17 0 0 0 -.29.2c.17-.14.12-.18.26-.25-.07 0-.09 0-.28 0a1.33 1.33 0 0 1 -.16.12s0-.08.14-.14c-.35 0 .45-.49 0-.36h-.23s.16 0 .28-.11c-.38 0 0-.13-.24-.14.62-.17-.08-.19.33-.31h-.15.12c-.12 0-.14 0-.22 0-.19-.17.23-.34.39-.41s-.74-.23-.38-.21l.26.1c-.28-.22.09-.2-.11-.43l.12.09c.19.08 0-.06-.09-.15 0 0 .13.07.21.1s-.19-.19 0-.09c0 0 .05 0 .06.06s.06 0-.14-.17c.12 0 0-.13.1-.07-.18-.19.15 0-.12-.23.28.26.27.15.17 0 .07.09.1.07.2.19s0-.09-.14-.24c.33.31-.13-.36.25.08a.87.87 0 0 1 0-.52c.17.33-.08.09.12.43 0-.18-.1-.49 0-.45s0 .16.07.22c0-.18.16 0 .17-.24a.36.36 0 0 1 0 .1s0 0 0-.12a2 2 0 0 1 -.1-.65c.09.48.12.09.21.71a.59.59 0 0 0 0-.23s0 .1.06.23c0-.11 0-.28 0-.29a1.5 1.5 0 0 1 0 .22c0-.17 0-.33.06-.27s0 .12 0 .12.1-.45.21-.3v.43-.09-.15s.08-.22.12-.12v.13l.08-.06v-.12c.06-.16 0-.39.09-.3s0 0 0 .19c0-.09.08-.19.1-.11a4 4 0 0 1 -.06.41c.06-.26.11-.06.2-.33a1.16 1.16 0 0 0 -.06.26l.06-.2a.54.54 0 0 1 0 .23s.07-.39.11-.21a.59.59 0 0 1 0 .08c.05.1.18-.1.22 0-.09.31-.08 0-.14.32.09 0 .32-.29.38-.18.21-.39 0 .23.1.07a.94.94 0 0 0 -.1.17c0 .09.16 0 .33-.09l-.08.08c0 .11.05.11.05.18.08-.09.09-.06.18-.2-.33.58.44-.08.14.4h-.09.2a.72.72 0 0 0 .17-.2c.1-.07.19-.1.21-.08a.87.87 0 0 0 -.31.29l.14-.12c-.23.26.32-.24.18 0l-.08.06c.06 0 .18-.06.18 0-.18.14-.11 0-.26.14 0 0 .41-.17.24 0s-.07 0-.14 0c-.19.18-.14.15-.16.19l-.07.12h.05c.53-.26.15 0 .52-.09-.35.1-.19.09-.42.2a.68.68 0 0 1 -.18.13c.19-.06-.13.11.16 0-.07 0 0 0-.19.11.08 0 .13-.06.23-.1.29-.05-.27.25.12.2a4 4 0 0 1 .6 0 .71.71 0 0 1 -.3 0c-.1.07-.07.09 0 .11a1 1 0 0 0 -.22.06s.29 0 .18 0h-.33c.08 0 .24 0 .32.06a1.18 1.18 0 0 1 -.32 0 .74.74 0 0 0 .37.08h.08s-.19 0-.23 0 .07-.06.15-.07h.06c.47-.09-.1-.11-.08-.16h.35-.3a.9.9 0 0 1 .34-.06c.16-.08-.13 0 .05-.09a.07.07 0 0 1 .06 0h-.12c.08 0 .24-.06.2 0 .17-.14-.29-.07 0-.18-.15-.08-.25.07-.56.08l.57-.26-.24.07s0 0 .11-.07c-.18 0-.1 0-.27.08.2-.14-.15-.1.21-.28-.18.06-.11.11-.26.11.39-.2-.1 0 .06-.16s.13 0 .28-.13c-.35.15 0-.14-.07-.15-.26.15-.16 0-.29 0 .09-.05 0-.22.09-.35-.26.18-.26.08-.34.08a.65.65 0 0 1 .29-.18.35.35 0 0 1 -.19.08l.19-.15c-.07 0-.3.08-.26-.1-.15.16-.38.47-.54.52a1.43 1.43 0 0 1 .27-.25s-.09 0-.07 0l.17-.12c0-.09-.13.1-.14.07s.06-.1.15-.2 0 .07 0 0a.55.55 0 0 1 .1-.25c-.06.07-.15.16-.19.16s.12-.17.14-.26c-.09.07-.05 0-.21.14 0 0 0-.1.09-.16s-.17-.09-.29.15c-.23.13-.13-.25-.29-.23v-.07c-.11.05-.17 0-.29.12 0 0 0-.16.07-.25s-.12.11-.14 0 0-.13.09-.08 0-.22-.16 0c.1-.19 0-.27 0-.22v.16c-.05 0-.08 0-.11 0l.11-.26c-.09-.38-.43.48-.42-.1-.08.19.06.15 0 .37 0 0-.06-.46-.09-.46-.09-.17-.15.39-.24.27a.93.93 0 0 1 -.09.46.85.85 0 0 1 0-.5s0 0 0 .06a.23.23 0 0 0 0-.19v.1c0-.1-.13-.1-.1-.26a.18.18 0 0 0 0 .22c-.09-.15-.15 0-.25-.11a.4.4 0 0 1 0 .17c-.15-.12-.06.19-.15.24-.06-.15 0-.36-.09-.23a.45.45 0 0 1 0-.34c-.08.19-.2-.11-.26-.14v-.08c0 .05-.05.05-.08.05l.06.2s-.06 0-.07-.11c0 .13.07.32.05.51-.06-.1-.09.12-.15-.13.13.06-.07-.26 0-.32s0 0-.07 0a.09.09 0 0 1 0-.07c-.18-.2 0 .31-.11.33 0-.15-.1-.27-.11-.23s.08.24.07.36c-.1-.1-.05.1-.09.1v.2c0-.11 0-.09 0-.14 0 .27-.21-.21-.22 0-.08-.08-.11-.26-.17-.31 0 .21-.18-.15-.21 0a.41.41 0 0 1 .12.33l.08-.19v.31s0-.16.08-.14a.44.44 0 0 0 .09.27c-.18-.25 0 .21-.18 0l-.21-.45c-.22-.14-.07.32-.25.29h.09c.08.17-.06.06-.06.16a1 1 0 0 0 -.22-.26c.07.1-.1.06.09.34l-.18-.14c-.15 0 .19.45.08.47-.1-.16-.21-.21-.24-.36 0 0-.07 0 0 .11-.08-.06.08.23-.05.14 0 .06.15.19.11.21v-.06c0 .06 0 .12.19.23-.45-.28-.17.22-.56 0a1 1 0 0 1 0 .26s-.07 0-.05 0c-.18 0 .37.31.17.31s-.1-.13-.2-.15c-.48-.27 0 .15-.32.06-.19 0 .12.23.05.29h-.08a.88.88 0 0 1 .32.41.81.81 0 0 0 -.3-.13s.33.11.36.19a1.83 1.83 0 0 1 -.46 0v-.08c-.3-.06 0 .1-.08.12h-.13c0 .13.33.21.28.32h.1c.31.13-.19 0 0 .13h-.33a2.3 2.3 0 0 1 .34.28 1.41 1.41 0 0 1 -.48-.26s0 .16.16.2c0 0-.11 0-.06-.06.25.08.38.16.37.24-.64 0-.18.21-.67.29.25.15-.08.34 0 .55.48-.16 0 .06.53-.06v.07l-.27.19c-.13.07-.12 0-.23 0s-.2.1-.31.21c.17-.07.26 0 .21 0l.21-.15c.29.06-.38.25-.07.31h-.17c.12 0 .1.29.52.18a.43.43 0 0 1 -.22.1c0 .21.57.14.42.39h-.11s.23-.08.15 0a.29.29 0 0 0 -.11.07c.05 0 .23-.05.2 0l-.14.06c0 .25.44 0 .59 0-.28.25-.27.44-.26.53.13.18.48 0 .7 0-.14.4.23.36.3.64a.52.52 0 0 1 .18-.27c0 .08.21-.19.06.12-.11.31 0 .28.08.31l.18-.41c0 .68.5-.08.45.5.07-.1.12-.09.19-.19v.23c.12.08.18.13.34.08v.17c.09 0 .16-.68.23-.69v.36c.14 0 .32.3.44 0v.17s.31.21.22-.27c0 .31.16 0 .2-.14v.23c0-.31 0-.39 0-.49s.07.18 0 .12c.1.11 0-.22.1-.12v.15c.08 0 0-.08 0-.26s.14 0 .23.21c0-.12-.06-.3 0-.26a.79.79 0 0 1 0 .15c.17.11 0-.32.21-.14a.58.58 0 0 0 .08.12c-.09 0-.17.06-.17 0 .09.2.18.2.24.5 0-.18-.05-.55.06-.49v.06s0 0 0-.06.06 0 .09 0c.09.15.13 0 .17 0-.13-.2-.06-.19-.21-.33a.22.22 0 0 1 -.07.06c0-.12-.06-.22 0-.13l-.15-.35a6.92 6.92 0 0 0 .53.5c0-.18.19-.25 0-.63 0-.07.11.07.17.11s0 .06 0 .11c0-.13.12-.16-.08-.4.15 0 .16.24.21.12l.06.08c.25.09.18-.12.1-.31s-.17-.34.17-.26a.21.21 0 0 1 -.11 0c.4-.09 0-.58.55-.66.11 0-.08-.12-.2-.21l.24.06-.26-.16c-.18-.14.67 0 .29-.27h-.17s-.08-.17.12-.14h-.09.13l-.21-.15c.1-.08.53.06.56-.09a.85.85 0 0 0 -.47-.15s-.09 0-.22 0h-.07a5.15 5.15 0 0 0 -1.07 0h.24-.02c-.18 0 0 0 .09.06a1.35 1.35 0 0 0 -.21 0l.37.08a2 2 0 0 0 -.39 0 3.59 3.59 0 0 1 .45.07c-.18 0-.32 0-.18 0a.62.62 0 0 1 -.2 0c.11 0 0 .07.24.11-.22 0 0 .1-.32 0a.73.73 0 0 1 .28.13c-.42-.15 0 .07-.5-.07.38.14.14.14.33.27h-.06a1.24 1.24 0 0 1 -.23 0 2.43 2.43 0 0 1 .52.31 5.92 5.92 0 0 1 -.62-.3c.24.11.21.17.42.26a1.92 1.92 0 0 1 -.35-.14c.37.2.06 0 .27.2-.2-.07-.34-.19-.26-.09a.79.79 0 0 1 -.19-.14zm-.33 1.17s0 0 0 0a.37.37 0 0 1 .06.15.6.6 0 0 0 -.06-.11zm1 1.32s0 0-.06 0z"/><path d="m607 114.59v.07z"/><path d="m604.89 113.26-.02.06.02-.05z"/><path d="m607 110.22s0 0 0 0z"/><path d="m607.12 110.45v.08s0-.06 0-.08z"/><path d="m607.12 110.68.09-.05z"/><path d="m604.73 109.91s0 .09 0 0z"/><path d="m605.53 109.29v.11s-.01.03 0-.11z"/><path d="m604.21 110.53h-.01z"/><path d="m605.45 109.39s0 0 0 0 .01-.03 0 0z"/><path d="m607.27 111.44s.03 0 0 0z"/><path d="m607.36 111.47h-.06s-.01 0 .06 0z"/><path d="m607.27 111.12s-.17.09-.11.1h.06c-.12 0 .19-.11.05-.1z"/><path d="m608.15 110.42v.11c.08 0 .18-.11.22-.08.18-.22-.21.1-.22-.03z"/><path d="m608.14 110.1c.06 0 .12-.06.16-.09a.17.17 0 0 0 -.16.09z"/><path d="m606.59 108.66.1-.19c-.06.01-.04.08-.1.19z"/><path d="m605.88 109.58-.01.14.07-.18z"/><path d="m606.06 108.05.03-.03-.09.06z"/><path d="m602.46 109.36.22.15c-.02-.05-.25-.24-.22-.15z"/><path d="m602 111c-.14 0-.23 0-.11.07s.11-.07.11-.07z"/><path d="m603.95 115.19-.07.08.1-.05z"/></g><path d="m664.94 102.6v206.4h-59.43a9.24 9.24 0 0 1 -9.21-9.26v-188.35a9.24 9.24 0 0 1 9.29-9.26z" fill="#394466"/><path d="m750.91 308.92a.73.73 0 0 1 -.73-.73v-205.85h1.45v205.85a.73.73 0 0 1 -.72.73z" fill="#394466"/><path d="m802.25 140.14h13.69" fill="none" stroke="#fff" stroke-linecap="round" stroke-miterlimit="10" stroke-width="1.45"/><path d="m823.54 140.14h18.74" fill="none" stroke="#fff" stroke-linecap="round" stroke-miterlimit="10" stroke-width="1.45"/><rect fill="#394466" height="53.8" rx="4.66" width="125.52" x="756.63" y="166.25"/><path d="m763.68 180.18h12.86" fill="none" stroke="#fff" stroke-linecap="round" stroke-miterlimit="10" stroke-width="1.45"/><path d="m780.6 180.18h20.84" fill="none" stroke="#fff" stroke-linecap="round" stroke-miterlimit="10" stroke-width="1.45"/><path d="m763.68 172.7h20.84" fill="none" stroke="#8173cb" stroke-linecap="round" stroke-miterlimit="10" stroke-width="1.45"/><path d="m763.93 189.29h20.84" fill="none" stroke="#8173cb" stroke-linecap="round" stroke-miterlimit="10" stroke-width="1.45"/><path d="m763.68 204.57h12.86" fill="none" stroke="#8173cb" stroke-linecap="round" stroke-miterlimit="10" stroke-width="1.45"/><path d="m781.36 204.57h22.51" fill="none" stroke="#8173cb" stroke-linecap="round" stroke-miterlimit="10" stroke-width="1.45"/><path d="m810.98 180.18h10.12" fill="none" stroke="#fff" stroke-linecap="round" stroke-miterlimit="10" stroke-width="1.45"/><rect fill="#394466" height="29.32" rx="3.75" width="125.52" x="756.63" y="225.84"/><rect fill="#394466" height="11.77" rx="2.38" width="125.52" x="756.32" y="260.96"/><rect fill="#394466" height="17.45" rx="2.89" width="125.52" x="756.32" y="278.52"/><path d="m887 120.26h-221.59a.72.72 0 1 1 0-1.44h221.59z" fill="#394466"/><path d="m763.44 234.74h40.34" fill="none" stroke="#8173cb" stroke-linecap="round" stroke-miterlimit="10" stroke-width="1.45"/><path d="m763.75 267.11h12.85" fill="none" stroke="#8173cb" stroke-linecap="round" stroke-miterlimit="10" stroke-width="1.45"/><circle cx="765.17" cy="196.7" fill="#fff" r="1.77"/><circle cx="772.03" cy="196.7" fill="#fff" r="1.77"/><circle cx="778.89" cy="196.7" fill="#fff" r="1.77"/><circle cx="785.75" cy="196.7" fill="#fff" r="1.77"/><circle cx="792.62" cy="196.7" fill="#fff" r="1.77"/><circle cx="799.48" cy="196.7" fill="#fff" r="1.77"/><circle cx="806.34" cy="196.7" fill="#fff" r="1.77"/><circle cx="813.2" cy="196.7" fill="#fff" r="1.77"/><circle cx="820.06" cy="196.7" fill="#fff" r="1.77"/><circle cx="765.17" cy="212.32" fill="#fff" r="1.77"/><circle cx="772.03" cy="212.32" fill="#fff" r="1.77"/><circle cx="778.89" cy="212.32" fill="#fff" r="1.77"/><circle cx="785.75" cy="212.32" fill="#fff" r="1.77"/><circle cx="792.62" cy="212.32" fill="#fff" r="1.77"/><rect fill="#394466" height="152.24" rx="12.75" width="252.44" x="152.99" y="153.62"/><circle cx="165.16" cy="165.05" fill="#f69a81" r="3.66"/><circle cx="176.76" cy="165.05" fill="#ffc95c" r="3.66"/><circle cx="188.17" cy="165.05" fill="#96d488" r="3.66"/><rect fill="#fff" height="24.89" rx="11.29" width="125.89" x="216.33" y="186.56"/><rect fill="#fff" height="24.89" rx="11.29" width="125.89" x="217.07" y="222.42"/><rect fill="#8d97b5" height="168.73" rx="13.46" width="275.41" x="235.32" y="64.38"/><path d="m510.73 142.2h-275.41v-31.72h275.41" fill="#aeb5ca" opacity=".59"/><path d="m510.73 127.04h-275.41v-1.4l275.41-.05z" fill="#6d7aa0"/><circle cx="372.86" cy="123.15" fill="#fff" r="33.47"/><circle cx="372.86" cy="123.15" fill="#43a0ff" r="26.67"/><circle cx="372.86" cy="123.15" fill="#fff" r="19.05"/><path d="m364.71 111.7a15.76 15.76 0 0 1 16.35-.32" fill="none" stroke="#72c260" stroke-linecap="round" stroke-miterlimit="10" stroke-width="1.45"/><path d="m361.29 119s3.39-5.7 11.6-5.91a13.32 13.32 0 0 1 11.73 5.91" fill="none" stroke="#72c260" stroke-linecap="round" stroke-miterlimit="10" stroke-width="1.45"/><path d="m363.39 132.16a14 14 0 0 1 0-9.22c1.95-5.48 7-6.36 9.59-6.43 3-.09 7.62.64 9.7 6.32 2.24 6.1-.44 7-1.59 7.32-1.36.4-3.8.36-4.63-3.89s-5.26-4.05-6.64-1.35 0 5.29 1.25 7 4 3.94 5.91 4.25" fill="none" stroke="#72c260" stroke-linecap="round" stroke-miterlimit="10" stroke-width="1.45"/><path d="m372.79 126.28s.33 3.7 3 5.68c3 2.24 5.25 1.29 5.25 1.29" fill="none" stroke="#72c260" stroke-linecap="round" stroke-miterlimit="10" stroke-width="1.45"/><path d="m369.69 135.59a10.63 10.63 0 0 1 -3.69-8.09c0-4.47 2.59-7.36 6.84-7.78s6.31 3 7.23 7.23" fill="none" stroke="#72c260" stroke-linecap="round" stroke-miterlimit="10" stroke-width="1.45"/><rect fill="#6d7aa0" height="18.56" rx="9.28" width="159.42" x="291.94" y="176.81"/><circle cx="384.62" cy="355.82" fill="none" r="5.54" stroke="#6d7aa0" stroke-linecap="round" stroke-miterlimit="10"/><circle cx="663.4" cy="356.26" fill="none" r="5.93" stroke="#6d7aa0" stroke-linecap="round" stroke-miterlimit="10"/><circle cx="663.69" cy="301.16" fill="#fff" r="38.16"/><circle cx="663.69" cy="301.16" fill="#43a0ff" r="33.53"/><path d="m661.11 298.58c1.2-1.19 24.93-19.85 24.93-19.85l-19.71 25.08z" fill="#ec5632"/><path d="m666.26 303.73c-1.19 1.2-24.93 19.86-24.93 19.86l19.67-25.08z" fill="#fff"/><path d="m521.39 206.36-36.39 6.48 9-34.53a7.73 7.73 0 0 1 7.5-5.8l19.88.08h.35l19.88.07a7.73 7.73 0 0 1 7.46 5.86l8.93 34.32z" fill="#394466"/><path d="m521 310.05-36.15-5.74 8.51 33.59a7.72 7.72 0 0 0 7.46 5.86l19.88.07h.3l19.88.08a7.73 7.73 0 0 0 7.51-5.81l8.82-33.79z" fill="#394466"/><rect fill="#6d7aa0" height="90.84" rx="21.55" transform="matrix(.00383971 -.99999263 .99999263 .00383971 261.41 778.39)" width="104.13" x="469.3" y="212.58"/><rect fill="#232b40" height="80.73" rx="16.88" transform="matrix(.00383971 -.99999263 .99999263 .00383971 261.6 778)" width="92.2" x="475.17" y="217.34"/><path d="m548.71 272.87h-54.39v-33.77a3.38 3.38 0 0 1 3.39-3.38h47.62a3.39 3.39 0 0 1 3.39 3.39z" fill="#dfe3e8"/><path d="m496.62 238h49.65v31.82h-49.65z" fill="#2d3854"/><path d="m552 276.35h-61.08a4.68 4.68 0 0 1 -4.68-4.69l70.46.05a4.7 4.7 0 0 1 -4.7 4.64z" fill="#6d7aa0"/><circle cx="521.64" cy="253.91" fill="#fff" r="11.35"/><circle cx="521.64" cy="253.91" fill="#43a0ff" r="8.63"/><circle cx="521.64" cy="253.91" fill="#fff" r="6.73"/><path d="m520.48 250.55h2.31v6.73h-2.31z" fill="#212b36"/><path d="m566.68 201.68s10.44 2.83 9.53 15.17" fill="none" stroke="#fff" stroke-linecap="round" stroke-miterlimit="10" stroke-width="1.45"/><path d="m564.87 188.82s21.79 4.83 22.55 31.39" fill="none" stroke="#fff" stroke-linecap="round" stroke-miterlimit="10" stroke-width="1.45"/><path d="m464.79 215s1.06-11.16 12.49-12.85" fill="none" stroke="#fff" stroke-linecap="round" stroke-miterlimit="10" stroke-width="1.45"/><path d="m452.71 219.77s-.44-22.32 25.18-29.33" fill="none" stroke="#fff" stroke-linecap="round" stroke-miterlimit="10" stroke-width="1.45"/><path d="m444.4 186.47a.82.82 0 0 0 -.77-.86h-.19v-.84a4.27 4.27 0 0 0 -3.48-4.42 4 4 0 0 0 -4.2 4.28v1h-.19a.82.82 0 0 0 -.77.87v4.4a.86.86 0 0 0 .8.89h8a.84.84 0 0 0 .8-.89zm-7.23-1.7a2.71 2.71 0 0 1 2.29-2.86 2.55 2.55 0 0 1 2.56 2.68v1h-4.85z" fill="#8d97b5"/><circle cx="680.46" cy="174.37" fill="#394466" r="9.4"/><circle cx="680.46" cy="198.27" fill="#394466" r="9.4"/><circle cx="680.46" cy="251.55" fill="#394466" r="9.4"/><rect fill="#394466" height="27.18" rx="5.21" width="79.57" x="667.47" y="126.55"/><path d="m692.31 90.56h-109.31a7.2 7.2 0 0 0 -7.21 7.2v71a7.21 7.21 0 0 0 7.21 7.24h36.71l13.68 12.84a8 8 0 0 0 10.92 0l13.69-12.84h34.35a7.21 7.21 0 0 0 7.21-7.21v-71a7.2 7.2 0 0 0 -7.25-7.23z" fill="#aeb5ca"/><circle cx="638.73" cy="132.56" fill="#fff" r="24.96"/><path d="m624.29 132.58a14.44 14.44 0 1 0 14.42-14.45 14.43 14.43 0 0 0 -14.42 14.45zm-5.46 0a19.9 19.9 0 1 1 19.92 19.86 19.9 19.9 0 0 1 -19.92-19.85z" fill="#43a0ff" fill-rule="evenodd"/><path d="m638.81 117.74a14.82 14.82 0 1 1 -14.91 14.94 14.83 14.83 0 0 1 14.91-14.94z" fill="#fff" fill-rule="evenodd"/><path d="m635.6 128.33v-5.48a1.21 1.21 0 0 1 1.21-1.21h3.82a1.21 1.21 0 0 1 1.21 1.21v10.16a.84.84 0 0 1 -.24.57l-.75.75a.8.8 0 0 0 0 1.14l.75.75a.78.78 0 0 1 .24.57v5.48a1.21 1.21 0 0 1 -1.21 1.21h-3.82a1.21 1.21 0 0 1 -1.21-1.21v-10.16a.82.82 0 0 1 .24-.57l.75-.76a.79.79 0 0 0 0-1.13l-.75-.76a.8.8 0 0 1 -.24-.56z" fill="#212b36"/><rect fill="#43a0ff" height="26.66" rx="6.93" width="99.98" x="188.17" y="291.03"/><path d="m268.55 297.79a11 11 0 0 1 11.41-.22" fill="none" stroke="#fff" stroke-linecap="round" stroke-miterlimit="10"/><path d="m266.16 302.88a9.75 9.75 0 0 1 8.09-4.12 9.28 9.28 0 0 1 8.19 4.12" fill="none" stroke="#fff" stroke-linecap="round" stroke-miterlimit="10"/><path d="m267.63 312.07a9.75 9.75 0 0 1 0-6.43 6.9 6.9 0 0 1 6.69-4.5 6.45 6.45 0 0 1 6.77 4.42c1.56 4.25-.31 4.86-1.11 5.1s-2.65.26-3.23-2.71-3.67-2.82-4.64-.94 0 3.69.87 4.85 2.83 2.75 4.13 3" fill="none" stroke="#fff" stroke-linecap="round" stroke-miterlimit="10"/><path d="m274.19 308a6 6 0 0 0 2.1 4c2.13 1.56 3.67.9 3.67.9" fill="none" stroke="#fff" stroke-linecap="round" stroke-miterlimit="10"/><path d="m272 314.46a7.41 7.41 0 0 1 -2.6-5.64c0-3.12 1.8-5.14 4.77-5.43s4.4 2.08 5 5" fill="none" stroke="#fff" stroke-linecap="round" stroke-miterlimit="10"/><g clip-path="url(#a)"><path d="m329.58 271.62h92.52v58.97h-92.52z" fill="#6554c0"/><path d="m422.1 271.62v29.54c0-.41-71.91-3.9-71.91-3.9l-20.61-25.64z" fill="#43a0ff"/><path d="m352.52 298.92c6.4 15.32 14.15 4.27 31.59 2.72s38 7.17 38 7.17v-11.05a8.87 8.87 0 0 1 -6.54-2c-5-4.26-10.08-4.36-27.57-1.32-24.3 4.21-16.48 6.59-30-3.1s-11.88-7.73-5.48 7.58z" fill="#fff"/><path d="m329.58 298.9s10.3-.33 13.6 9.94c5.06 15.8 21.9 20.54 39.34 19 11.13-1 16.09-.77 25 2.72h14.58v-10.12s-6.59-6.4-31.21-8-21.9-12.4-35.46-22.09-25.81-11.95-25.81-11.95z" fill="#ef7457" opacity=".65"/><path d="m329.61 279.77s12-5.82 18.41 9.49 18.61 23.84 36.05 22.29 38 7.28 38 7.28v-12.48s-4.89-9.14-32.6-7.4c-24.62 1.55-20.55 1.17-34.11-8.52a304.24 304.24 0 0 0 -25.75-16.43z" fill="#ffc95c"/><path d="m329.58 281.7s12 4.08 18.44 19.39 23 14.63 40.47 14.63c17 0 33.6 12.93 33.6 12.93v-13.18s-2.83-4.34-9.73-4.78c-9.84-.63-9.2-5.22-16.34-5.66-17-1-16.93-7.34-17.81-10.68-3.14-11.94-12.25.84-22.06-12.64-7.75-10.66-26.58-9.52-26.58-9.52z" fill="#ef7559"/></g><g clip-path="url(#b)"><path d="m743.13 124.64h53.56v34.14h-53.56z" fill="#6554c0"/><path d="m796.7 124.64v17.11c0-.24-41.63-2.26-41.63-2.26l-11.94-14.85z" fill="#43a0ff"/><path d="m756.42 140.46c3.7 8.86 8.19 2.46 18.29 1.57s22 4.15 22 4.15v-6.4a5.16 5.16 0 0 1 -3.79-1.14c-2.87-2.47-5.83-2.52-16-.76-14.07 2.43-9.54 3.81-17.39-1.8s-6.82-4.49-3.11 4.38z" fill="#fff"/><path d="m743.13 140.44a8.23 8.23 0 0 1 7.87 5.76c2.94 9.14 12.68 11.89 22.78 11 6.45-.57 9.32-.45 14.48 1.57h8.44v-5.86s-3.81-3.7-18.06-4.6-12.68-7.18-20.54-12.79a41.53 41.53 0 0 0 -14.94-6.92z" fill="#ef7457" opacity=".65"/><path d="m743.15 129.36s7-3.36 10.66 5.5 10.77 13.8 20.87 12.91 22 4.21 22 4.21v-7.22s-2.83-5.3-18.88-4.29c-14.25.9-11.89.68-19.75-4.93a175.23 175.23 0 0 0 -14.9-9.54z" fill="#ffc95c"/><path d="m743.13 130.48s7 2.36 10.68 11.23 13.29 8.47 23.43 8.47c9.83 0 19.45 7.49 19.45 7.49v-7.67a7.31 7.31 0 0 0 -5.63-2.76c-5.7-.37-5.33-3-9.46-3.28-9.83-.6-9.8-4.25-10.31-6.18-1.82-6.92-7.1.48-12.78-7.32-4.51-6.15-15.38-5.46-15.38-5.46z" fill="#ef7559"/></g><path d="m217.06 97.93 6.92 6.78-6.92 6.77" fill="none" stroke="#6d7aa0" stroke-linecap="round" stroke-miterlimit="10"/><rect fill="#394466" height="17.34" rx="4.08" transform="matrix(.70710678 .70710678 -.70710678 .70710678 358.12 -415.37)" width="17.34" x="671.79" y="215.93"/><path d="m566.7 233.78a5.32 5.32 0 0 1 5.3 5.32v7.13a5.32 5.32 0 0 1 -5.32 5.32 0 0 0 0 1 0 0v-17.77a0 0 0 0 1 .02 0z" fill="#4d5d8c"/></svg>